<mxfile host="app.diagrams.net" modified="2024-07-19T04:38:59.479Z" agent="Mozilla/5.0 (Macintosh; Intel Mac OS X 10_15_7) AppleWebKit/537.36 (KHTML, like Gecko) Chrome/126.0.0.0 Safari/537.36" version="24.7.1" etag="7HjS9Y26EOhyZ7u_Rvuy" type="github">
  <diagram name="Page-1" id="zzsfECMOTPZOnyYprNuH">
    <mxGraphModel>
      <root>
        <mxCell id="0" />
        <mxCell id="1" parent="0" />
      </root>
    </mxGraphModel>
  </diagram>
</mxfile>
